<svg xmlns="http://www.w3.org/2000/svg" viewBox="0 0 64 80" x="0px" y="0px"><g data-name="automatic door"><path d="M40,3a1,1,0,0,0-1-1H3A1,1,0,0,0,2,3V62H62V60H40ZM4,60V4H38V60Z"/><path d="M31,8H7A1,1,0,0,0,6,9V29a1,1,0,0,0,1,1H31a1,1,0,0,0,1-1V9A1,1,0,0,0,31,8ZM30,28H8V10H30Z"/><path d="M31,34H7a1,1,0,0,0-1,1V55a1,1,0,0,0,1,1H31a1,1,0,0,0,1-1V35A1,1,0,0,0,31,34ZM30,54H8V36H30Z"/><path d="M43,15h9v3a1,1,0,0,0,.587.91A.983.983,0,0,0,53,19a1,1,0,0,0,.658-.247l8-7a1,1,0,0,0,0-1.506l-8-7A1,1,0,0,0,52,4V7H43a1,1,0,0,0-1,1v6A1,1,0,0,0,43,15Zm1-6h9a1,1,0,0,0,1-1V6.2L59.481,11,54,15.8V14a1,1,0,0,0-1-1H44Z"/><path d="M48.09,40.519a.987.987,0,0,0,.48.124,1,1,0,0,0,.779-.372l9.428-11.642A1,1,0,0,0,58,27H54.4L57.7,23.707A1,1,0,0,0,56.988,22H48.654a1,1,0,0,0-.894.553l-2.5,5A1,1,0,0,0,46.154,29H47.6l-1.58,2.459A1,1,0,0,0,46.857,33h2.894l-2.128,6.323A1,1,0,0,0,48.09,40.519Zm.6-9.519,1.581-2.459A1,1,0,0,0,49.429,27H47.772l1.5-3h5.3l-3.293,3.293A1,1,0,0,0,51.988,29H55.9l-4.612,5.7.8-2.376A1,1,0,0,0,51.143,31Z"/><path d="M61,46H52V43a1,1,0,0,0-1.658-.753l-8,7a1,1,0,0,0,0,1.506l8,7A1,1,0,0,0,51,58a.983.983,0,0,0,.413-.09A1,1,0,0,0,52,57V54h9a1,1,0,0,0,1-1V47A1,1,0,0,0,61,46Zm-1,6H51a1,1,0,0,0-1,1v1.8L44.519,50,50,45.2V47a1,1,0,0,0,1,1h9Z"/><rect x="35" y="23" width="2" height="18"/></g><text x="0" y="79" fill="#000000" font-size="5px" font-weight="bold" font-family="'Helvetica Neue', Helvetica, Arial-Unicode, Arial, Sans-serif">Created by Phonlaphat Thongsriphong</text><text x="0" y="84" fill="#000000" font-size="5px" font-weight="bold" font-family="'Helvetica Neue', Helvetica, Arial-Unicode, Arial, Sans-serif">from the Noun Project</text></svg>