<svg xmlns="http://www.w3.org/2000/svg" xmlns:xlink="http://www.w3.org/1999/xlink" version="1.1" x="0px" y="0px" viewBox="0 0 512 640" style="enable-background:new 0 0 512 512;" xml:space="preserve"><g><g><g><g><path d="M126,493H26c-3.9,0-7-3.1-7-7V106c0-1.3,0.4-2.6,1.1-3.7l50-80c1.3-2,3.5-3.3,5.9-3.3s4.7,1.2,5.9,3.3l50,80      c0.7,1.1,1.1,2.4,1.1,3.7v380C133,489.9,129.9,493,126,493z M33,479h86V108L76,39.2L33,108V479z"/></g><g><path d="M486,493H386c-3.9,0-7-3.1-7-7V106c0-1.3,0.4-2.6,1.1-3.7l50-80c1.3-2,3.5-3.3,5.9-3.3s4.7,1.2,5.9,3.3l50,80      c0.7,1.1,1.1,2.4,1.1,3.7v380C493,489.9,489.9,493,486,493z M393,479h86V108l-43-68.8L393,108V479z"/></g><g><g><path d="M386,173H126c-3.9,0-7-3.1-7-7s3.1-7,7-7h260c3.9,0,7,3.1,7,7S389.9,173,386,173z"/></g><g><g><g><path d="M161.1,193c-1.4,0-2.9-0.4-4.2-1.4c-3.1-2.3-3.8-6.7-1.5-9.8l28.3-38.3c2.3-3.1,6.7-3.8,9.8-1.5s3.8,6.7,1.5,9.8         l-28.3,38.3C165.4,192,163.3,193,161.1,193z"/></g><g><path d="M189.4,193c-2.1,0-4.3-1-5.6-2.8l-28.3-38.3c-2.3-3.1-1.6-7.5,1.5-9.8s7.5-1.6,9.8,1.5l28.3,38.3         c2.3,3.1,1.6,7.5-1.5,9.8C192.3,192.6,190.9,193,189.4,193z"/></g></g><g><g><path d="M239.4,193c-1.4,0-2.9-0.4-4.2-1.4c-3.1-2.3-3.8-6.7-1.5-9.8l28.3-38.3c2.3-3.1,6.7-3.8,9.8-1.5         c3.1,2.3,3.8,6.7,1.5,9.8L245,190.1C243.7,192,241.6,193,239.4,193z"/></g><g><path d="M267.7,193c-2.1,0-4.3-1-5.6-2.8l-28.3-38.3c-2.3-3.1-1.6-7.5,1.5-9.8s7.5-1.6,9.8,1.5l28.3,38.3         c2.3,3.1,1.6,7.5-1.5,9.8C270.6,192.6,269.2,193,267.7,193z"/></g></g><g><g><path d="M317.7,193c-1.4,0-2.9-0.4-4.2-1.4c-3.1-2.3-3.8-6.7-1.5-9.8l28.3-38.3c2.3-3.1,6.7-3.8,9.8-1.5         c3.1,2.3,3.8,6.7,1.5,9.8l-28.3,38.3C322,192,319.9,193,317.7,193z"/></g><g><path d="M346,193c-2.1,0-4.3-1-5.6-2.8l-28.3-38.3c-2.3-3.1-1.6-7.5,1.5-9.8s7.5-1.6,9.8,1.5l28.3,38.3         c2.3,3.1,1.6,7.5-1.5,9.8C348.9,192.6,347.5,193,346,193z"/></g></g></g></g><g><g><path d="M386,303H126c-3.9,0-7-3.1-7-7s3.1-7,7-7h260c3.9,0,7,3.1,7,7S389.9,303,386,303z"/></g><g><g><g><path d="M161.1,323c-1.4,0-2.9-0.4-4.2-1.4c-3.1-2.3-3.8-6.7-1.5-9.8l28.3-38.3c2.3-3.1,6.7-3.8,9.8-1.5s3.8,6.7,1.5,9.8         l-28.3,38.3C165.4,322,163.3,323,161.1,323z"/></g><g><path d="M189.4,323c-2.1,0-4.3-1-5.6-2.8l-28.3-38.3c-2.3-3.1-1.6-7.5,1.5-9.8s7.5-1.6,9.8,1.5l28.3,38.3         c2.3,3.1,1.6,7.5-1.5,9.8C192.3,322.6,190.9,323,189.4,323z"/></g></g><g><g><path d="M239.4,323c-1.4,0-2.9-0.4-4.2-1.4c-3.1-2.3-3.8-6.7-1.5-9.8l28.3-38.3c2.3-3.1,6.7-3.8,9.8-1.5         c3.1,2.3,3.8,6.7,1.5,9.8L245,320.1C243.7,322,241.6,323,239.4,323z"/></g><g><path d="M267.7,323c-2.1,0-4.3-1-5.6-2.8l-28.3-38.3c-2.3-3.1-1.6-7.5,1.5-9.8s7.5-1.6,9.8,1.5l28.3,38.3         c2.3,3.1,1.6,7.5-1.5,9.8C270.6,322.6,269.2,323,267.7,323z"/></g></g><g><g><path d="M317.7,323c-1.4,0-2.9-0.4-4.2-1.4c-3.1-2.3-3.8-6.7-1.5-9.8l28.3-38.3c2.3-3.1,6.7-3.8,9.8-1.5         c3.1,2.3,3.8,6.7,1.5,9.8l-28.3,38.3C322,322,319.9,323,317.7,323z"/></g><g><path d="M346,323c-2.1,0-4.3-1-5.6-2.8l-28.3-38.3c-2.3-3.1-1.6-7.5,1.5-9.8s7.5-1.6,9.8,1.5l28.3,38.3         c2.3,3.1,1.6,7.5-1.5,9.8C348.9,322.6,347.5,323,346,323z"/></g></g></g></g><g><g><path d="M386,433H126c-3.9,0-7-3.1-7-7s3.1-7,7-7h260c3.9,0,7,3.1,7,7S389.9,433,386,433z"/></g><g><g><g><path d="M161.1,453c-1.4,0-2.9-0.4-4.2-1.4c-3.1-2.3-3.8-6.7-1.5-9.8l28.3-38.3c2.3-3.1,6.7-3.8,9.8-1.5s3.8,6.7,1.5,9.8         l-28.3,38.3C165.4,452,163.3,453,161.1,453z"/></g><g><path d="M189.4,453c-2.1,0-4.3-1-5.6-2.8l-28.3-38.3c-2.3-3.1-1.6-7.5,1.5-9.8s7.5-1.6,9.8,1.5l28.3,38.3         c2.3,3.1,1.6,7.5-1.5,9.8C192.3,452.6,190.9,453,189.4,453z"/></g></g><g><g><path d="M239.4,453c-1.4,0-2.9-0.4-4.2-1.4c-3.1-2.3-3.8-6.7-1.5-9.8l28.3-38.3c2.3-3.1,6.7-3.8,9.8-1.5         c3.1,2.3,3.8,6.7,1.5,9.8L245,450.1C243.7,452,241.6,453,239.4,453z"/></g><g><path d="M267.7,453c-2.1,0-4.3-1-5.6-2.8l-28.3-38.3c-2.3-3.1-1.6-7.5,1.5-9.8s7.5-1.6,9.8,1.5l28.3,38.3         c2.3,3.1,1.6,7.5-1.5,9.8C270.6,452.6,269.2,453,267.7,453z"/></g></g><g><g><path d="M317.7,453c-1.4,0-2.9-0.4-4.2-1.4c-3.1-2.3-3.8-6.7-1.5-9.8l28.3-38.3c2.3-3.1,6.7-3.8,9.8-1.5         c3.1,2.3,3.8,6.7,1.5,9.8l-28.3,38.3C322,452,319.9,453,317.7,453z"/></g><g><path d="M346,453c-2.1,0-4.3-1-5.6-2.8l-28.3-38.3c-2.3-3.1-1.6-7.5,1.5-9.8s7.5-1.6,9.8,1.5l28.3,38.3         c2.3,3.1,1.6,7.5-1.5,9.8C348.9,452.6,347.5,453,346,453z"/></g></g></g></g><g><g><g><g><path d="M56,153H26c-3.9,0-7-3.1-7-7s3.1-7,7-7h30c3.9,0,7,3.1,7,7S59.9,153,56,153z"/></g><g><path d="M126,173H96c-3.9,0-7-3.1-7-7s3.1-7,7-7h30c3.9,0,7,3.1,7,7S129.9,173,126,173z"/></g></g><g><g><path d="M56,213H26c-3.9,0-7-3.1-7-7s3.1-7,7-7h30c3.9,0,7,3.1,7,7S59.9,213,56,213z"/></g><g><path d="M126,233H96c-3.9,0-7-3.1-7-7s3.1-7,7-7h30c3.9,0,7,3.1,7,7S129.9,233,126,233z"/></g></g><g><g><path d="M56,283H26c-3.9,0-7-3.1-7-7s3.1-7,7-7h30c3.9,0,7,3.1,7,7S59.9,283,56,283z"/></g><g><path d="M126,303H96c-3.9,0-7-3.1-7-7s3.1-7,7-7h30c3.9,0,7,3.1,7,7S129.9,303,126,303z"/></g></g></g><g><g><path d="M56,353H26c-3.9,0-7-3.1-7-7s3.1-7,7-7h30c3.9,0,7,3.1,7,7S59.9,353,56,353z"/></g><g><path d="M126,373H96c-3.9,0-7-3.1-7-7s3.1-7,7-7h30c3.9,0,7,3.1,7,7S129.9,373,126,373z"/></g></g><g><g><path d="M56,413H26c-3.9,0-7-3.1-7-7s3.1-7,7-7h30c3.9,0,7,3.1,7,7S59.9,413,56,413z"/></g><g><path d="M126,433H96c-3.9,0-7-3.1-7-7s3.1-7,7-7h30c3.9,0,7,3.1,7,7S129.9,433,126,433z"/></g></g></g><g><g><g><g><path d="M486,153h-30c-3.9,0-7-3.1-7-7s3.1-7,7-7h30c3.9,0,7,3.1,7,7S489.9,153,486,153z"/></g><g><path d="M416,173h-30c-3.9,0-7-3.1-7-7s3.1-7,7-7h30c3.9,0,7,3.1,7,7S419.9,173,416,173z"/></g></g><g><g><path d="M486,213h-30c-3.9,0-7-3.1-7-7s3.1-7,7-7h30c3.9,0,7,3.1,7,7S489.9,213,486,213z"/></g><g><path d="M416,233h-30c-3.9,0-7-3.1-7-7s3.1-7,7-7h30c3.9,0,7,3.1,7,7S419.9,233,416,233z"/></g></g><g><g><path d="M486,283h-30c-3.9,0-7-3.1-7-7s3.1-7,7-7h30c3.9,0,7,3.1,7,7S489.9,283,486,283z"/></g><g><path d="M416,303h-30c-3.9,0-7-3.1-7-7s3.1-7,7-7h30c3.9,0,7,3.1,7,7S419.9,303,416,303z"/></g></g></g><g><g><path d="M486,353h-30c-3.9,0-7-3.1-7-7s3.1-7,7-7h30c3.9,0,7,3.1,7,7S489.9,353,486,353z"/></g><g><path d="M416,373h-30c-3.9,0-7-3.1-7-7s3.1-7,7-7h30c3.9,0,7,3.1,7,7S419.9,373,416,373z"/></g></g><g><g><path d="M486,413h-30c-3.9,0-7-3.1-7-7s3.1-7,7-7h30c3.9,0,7,3.1,7,7S489.9,413,486,413z"/></g><g><path d="M416,433h-30c-3.9,0-7-3.1-7-7s3.1-7,7-7h30c3.9,0,7,3.1,7,7S419.9,433,416,433z"/></g></g></g></g></g></g><text x="0" y="527" fill="#000000" font-size="5px" font-weight="bold" font-family="'Helvetica Neue', Helvetica, Arial-Unicode, Arial, Sans-serif">Created by Flatart</text><text x="0" y="532" fill="#000000" font-size="5px" font-weight="bold" font-family="'Helvetica Neue', Helvetica, Arial-Unicode, Arial, Sans-serif">from the Noun Project</text></svg>