<svg xmlns="http://www.w3.org/2000/svg" xmlns:xlink="http://www.w3.org/1999/xlink" version="1.1" x="0px" y="0px" viewBox="0 0 64 80" style="enable-background:new 0 0 64 64;" xml:space="preserve"><g><path d="M30,32.507L39.57,12h-4.244l2-7h-9.122l-3.461,15H30V32.507z M27.257,18l2.539-11h4.878l-2,7h3.756L32,23.493V18H27.257z"/><path d="M60,25h-2c-1.302,0-2.402,0.839-2.816,2h-8.788C48.036,24.386,49,21.307,49,18c0-9.374-7.626-17-17-17S15,8.626,15,18   c0,3.307,0.964,6.386,2.604,9H8.816C8.402,25.839,7.302,25,6,25H4c-1.654,0-3,1.346-3,3v32c0,1.654,1.346,3,3,3h2   c1.654,0,3-1.346,3-3v-1h46v1c0,1.654,1.346,3,3,3h2c1.654,0,3-1.346,3-3V28C63,26.346,61.654,25,60,25z M55,29v4H39.983   c1.922-1.027,3.623-2.413,5.017-4.068V29H55z M9,45v-4h46v4H9z M55,47v4H9v-4H55z M9,39v-4h46v4H9z M32,3c8.271,0,15,6.729,15,15   s-6.729,15-15,15s-15-6.729-15-15S23.729,3,32,3z M24.017,33H9v-4h10.062C20.445,30.624,22.122,31.987,24.017,33z M7,60   c0,0.552-0.448,1-1,1H4c-0.552,0-1-0.448-1-1V28c0-0.551,0.448-1,1-1h2c0.552,0,1,0.449,1,1V60z M9,57v-4h46v4H9z M61,60   c0,0.552-0.448,1-1,1h-2c-0.552,0-1-0.448-1-1V28c0-0.551,0.448-1,1-1h2c0.552,0,1,0.449,1,1V60z"/></g><text x="0" y="79" fill="#000000" font-size="5px" font-weight="bold" font-family="'Helvetica Neue', Helvetica, Arial-Unicode, Arial, Sans-serif">Created by Eucalyp</text><text x="0" y="84" fill="#000000" font-size="5px" font-weight="bold" font-family="'Helvetica Neue', Helvetica, Arial-Unicode, Arial, Sans-serif">from the Noun Project</text></svg>