<svg xmlns="http://www.w3.org/2000/svg" viewBox="0 0 64 80" x="0px" y="0px"><g><circle cx="16" cy="15" r="6"/><path d="M35,42a3,3,0,0,1,3.5-2.959A3.082,3.082,0,0,1,41,42.107V43h4V33H31V43h4Z"/><rect x="31" y="10" width="14" height="10"/><path d="M50.175,49.014A1,1,0,0,0,49,50a1,1,0,0,1-2,0,1,1,0,0,0-2,0,1,1,0,0,1-2,0,1,1,0,0,0-2,0,1,1,0,0,1-2,0V42.107a1.085,1.085,0,0,0-.825-1.093A1,1,0,0,0,37,42V56a1,1,0,0,1-1.515.857l-4.169-2.5a.759.759,0,0,0-.736-.028l-.158.079a.76.76,0,0,0-.422.684.769.769,0,0,0,.321.624l6,4.285H51V50.107A1.085,1.085,0,0,0,50.175,49.014Z"/><rect x="2" y="14" width="6" height="2"/><rect x="23" y="14" width="6" height="2"/><path d="M61.707,14.293l-4-4-1.414,1.414L58.586,14H47v2h5V37H47v2h6a1,1,0,0,0,1-1V16h4.586l-2.293,2.293,1.414,1.414,4-4A1,1,0,0,0,61.707,14.293Z"/><path d="M17,24.414l2.293,2.293,1.414-1.414-4-4a1,1,0,0,0-1.414,0l-4,4,1.414,1.414L15,24.414V38a1,1,0,0,0,1,1H29V37H17Z"/></g><text x="0" y="79" fill="#000000" font-size="5px" font-weight="bold" font-family="'Helvetica Neue', Helvetica, Arial-Unicode, Arial, Sans-serif">Created by monkik</text><text x="0" y="84" fill="#000000" font-size="5px" font-weight="bold" font-family="'Helvetica Neue', Helvetica, Arial-Unicode, Arial, Sans-serif">from the Noun Project</text></svg>