<svg xmlns="http://www.w3.org/2000/svg" xmlns:xlink="http://www.w3.org/1999/xlink" version="1.1" x="0px" y="0px" viewBox="0 0 100 125" enable-background="new 0 0 100 100" xml:space="preserve"><path d="M11.647,17.008v66.559c0,0.193,0.157,0.35,0.35,0.35h2.335h0.167c0.193,0,0.35-0.156,0.35-0.35v-0.317h35.64h0.042h0.041  h35.641v0.317c0,0.193,0.156,0.35,0.35,0.35h0.168h2.335c0.193,0,0.35-0.156,0.35-0.35V17.008c0-0.193-0.156-0.35-0.35-0.35H11.997  C11.804,16.658,11.647,16.814,11.647,17.008z M86.213,82.55H50.572c-0.007,0-0.014,0.004-0.021,0.004s-0.014-0.004-0.021-0.004  c-0.008,0-0.014,0.004-0.021,0.004c-0.008,0-0.014-0.004-0.021-0.004h-35.64v-62.69h35.64c0.008,0,0.014-0.004,0.021-0.004  c0.008,0,0.014,0.004,0.021,0.004c0.007,0,0.014-0.004,0.021-0.004s0.014,0.004,0.021,0.004h35.641V82.55z M12.347,17.357h76.369  v65.859H87.08V19.344c0-0.193-0.156-0.35-0.35-0.35H14.332c-0.193,0-0.35,0.156-0.35,0.35v63.873h-1.635V17.357z"/><path d="M74.306,28.599l2.002,2.002c0.068,0.068,0.157,0.103,0.247,0.103s0.179-0.034,0.247-0.103l2.002-2.002  c0.137-0.137,0.137-0.357,0-0.494l-2.002-2.002c-0.137-0.137-0.357-0.137-0.494,0l-2.002,2.002  C74.169,28.241,74.169,28.462,74.306,28.599z M76.555,26.844l1.508,1.508l-1.508,1.508l-1.508-1.508L76.555,26.844z"/><path d="M82.893,28.669h-3.117c-0.098,0-0.186,0.04-0.248,0.104l-2.552,2.553c-0.063,0.063-0.104,0.15-0.104,0.248v1.949  c0,0.193,0.156,0.35,0.35,0.35h5.671c0.193,0,0.35-0.156,0.35-0.35v-4.504C83.242,28.825,83.086,28.669,82.893,28.669z   M82.543,33.173h-4.972v-1.455l2.349-2.35h2.623V33.173z"/><path d="M70.215,28.033h3.117c0.098,0,0.186-0.04,0.248-0.104l2.553-2.553c0.063-0.062,0.104-0.15,0.104-0.248V23.18  c0-0.193-0.156-0.35-0.35-0.35h-5.672c-0.193,0-0.35,0.156-0.35,0.35v4.504C69.865,27.877,70.021,28.033,70.215,28.033z   M70.564,23.529h4.973v1.455l-2.35,2.35h-2.623V23.529z"/><path d="M70.215,33.872h5.672c0.193,0,0.35-0.156,0.35-0.35v-1.949c0-0.098-0.04-0.185-0.104-0.248l-2.553-2.553  c-0.062-0.063-0.15-0.104-0.248-0.104h-3.117c-0.193,0-0.35,0.156-0.35,0.35v4.504C69.865,33.716,70.021,33.872,70.215,33.872z   M70.564,29.368h2.623l2.35,2.35v1.455h-4.973V29.368z"/><path d="M70.215,79.579h12.678c0.193,0,0.35-0.156,0.35-0.35V36.858c0-0.193-0.156-0.35-0.35-0.35H70.215  c-0.193,0-0.35,0.156-0.35,0.35v42.371C69.865,79.423,70.021,79.579,70.215,79.579z M70.564,37.208h11.979V78.88H70.564V37.208z"/><path d="M79.527,27.93c0.062,0.063,0.15,0.104,0.248,0.104h3.117c0.193,0,0.35-0.156,0.35-0.35V23.18c0-0.193-0.156-0.35-0.35-0.35  h-5.671c-0.193,0-0.35,0.156-0.35,0.35v1.949c0,0.098,0.04,0.185,0.104,0.248L79.527,27.93z M77.571,23.529h4.972v3.805H79.92  l-2.349-2.35V23.529z"/><path d="M54.201,28.033h3.117c0.098,0,0.186-0.04,0.248-0.104l2.553-2.553c0.063-0.062,0.104-0.15,0.104-0.248V23.18  c0-0.193-0.156-0.35-0.35-0.35h-5.672c-0.193,0-0.35,0.156-0.35,0.35v4.504C53.852,27.877,54.008,28.033,54.201,28.033z   M54.551,23.529h4.973v1.455l-2.35,2.35h-2.623V23.529z"/><path d="M58.291,28.599l2.002,2.002c0.068,0.068,0.157,0.103,0.247,0.103s0.179-0.034,0.247-0.103l2.002-2.002  c0.137-0.137,0.137-0.357,0-0.494l-2.002-2.002c-0.137-0.137-0.357-0.137-0.494,0l-2.002,2.002  C58.154,28.241,58.154,28.462,58.291,28.599z M60.54,26.844l1.508,1.508l-1.508,1.508l-1.508-1.508L60.54,26.844z"/><path d="M54.201,33.872h5.672c0.193,0,0.35-0.156,0.35-0.35v-1.949c0-0.098-0.04-0.185-0.104-0.248l-2.553-2.553  c-0.062-0.063-0.15-0.104-0.248-0.104h-3.117c-0.193,0-0.35,0.156-0.35,0.35v4.504C53.852,33.716,54.008,33.872,54.201,33.872z   M54.551,29.368h2.623l2.35,2.35v1.455h-4.973V29.368z"/><path d="M63.514,27.93c0.063,0.063,0.15,0.104,0.248,0.104h3.117c0.193,0,0.35-0.156,0.35-0.35V23.18c0-0.193-0.156-0.35-0.35-0.35  h-5.672c-0.193,0-0.35,0.156-0.35,0.35v1.949c0,0.098,0.04,0.185,0.104,0.248L63.514,27.93z M61.557,23.529h4.973v3.805h-2.623  l-2.35-2.35V23.529z"/><path d="M66.879,28.669h-3.117c-0.098,0-0.186,0.04-0.248,0.104l-2.553,2.553c-0.063,0.063-0.104,0.15-0.104,0.248v1.949  c0,0.193,0.156,0.35,0.35,0.35h5.672c0.193,0,0.35-0.156,0.35-0.35v-4.504C67.229,28.825,67.072,28.669,66.879,28.669z   M66.529,33.173h-4.973v-1.455l2.35-2.35h2.623V33.173z"/><path d="M54.201,79.579h12.678c0.193,0,0.35-0.156,0.35-0.35V36.858c0-0.193-0.156-0.35-0.35-0.35H54.201  c-0.193,0-0.35,0.156-0.35,0.35v42.371C53.852,79.423,54.008,79.579,54.201,79.579z M54.551,37.208h11.979V78.88H54.551V37.208z"/><path d="M34.184,28.033h3.117c0.097,0,0.185-0.039,0.248-0.104l2.554-2.553c0.063-0.063,0.103-0.151,0.103-0.248V23.18  c0-0.193-0.157-0.35-0.35-0.35h-5.672c-0.193,0-0.35,0.156-0.35,0.35v4.504C33.833,27.877,33.99,28.033,34.184,28.033z   M34.534,23.529h4.972v1.455l-2.35,2.35h-2.622V23.529z"/><path d="M34.184,33.872h5.672c0.193,0,0.35-0.156,0.35-0.35v-1.949c0-0.097-0.04-0.185-0.103-0.248l-2.554-2.554  c-0.063-0.063-0.151-0.103-0.248-0.103h-3.117c-0.193,0-0.35,0.156-0.35,0.35v4.504C33.833,33.716,33.99,33.872,34.184,33.872z   M34.534,29.368h2.622l2.35,2.35v1.455h-4.972V29.368z"/><path d="M46.861,22.83h-5.672c-0.193,0-0.35,0.156-0.35,0.35v1.949c0,0.097,0.04,0.185,0.103,0.248l2.554,2.553  c0.063,0.064,0.151,0.104,0.248,0.104h3.117c0.193,0,0.35-0.156,0.35-0.35V23.18C47.211,22.986,47.055,22.83,46.861,22.83z   M46.512,27.334h-2.623l-2.35-2.35v-1.455h4.972V27.334z"/><path d="M38.273,28.599l2.002,2.002c0.068,0.068,0.158,0.103,0.248,0.103s0.179-0.034,0.248-0.103l2.001-2.002  c0.068-0.068,0.103-0.157,0.103-0.247s-0.034-0.179-0.103-0.247l-2.001-2.002C40.701,26.034,40.612,26,40.522,26  c-0.09,0-0.179,0.034-0.248,0.103l-2.002,2.002C38.136,28.241,38.136,28.462,38.273,28.599z M40.522,26.845l1.506,1.507  l-1.506,1.507l-1.507-1.507L40.522,26.845z"/><path d="M46.861,28.669h-3.117c-0.097,0-0.185,0.039-0.248,0.103l-2.554,2.554c-0.063,0.063-0.103,0.151-0.103,0.248v1.949  c0,0.193,0.157,0.35,0.35,0.35h5.672c0.193,0,0.35-0.156,0.35-0.35v-4.504C47.211,28.825,47.055,28.669,46.861,28.669z   M46.512,33.173H41.54v-1.455l2.35-2.35h2.623V33.173z"/><path d="M46.861,36.509H34.184c-0.193,0-0.35,0.156-0.35,0.35v42.371c0,0.193,0.157,0.35,0.35,0.35h12.678  c0.193,0,0.35-0.156,0.35-0.35V36.858C47.211,36.665,47.055,36.509,46.861,36.509z M46.512,78.88H34.534V37.208h11.978V78.88z"/><path d="M30.848,36.509H18.169c-0.193,0-0.35,0.156-0.35,0.35v42.371c0,0.193,0.157,0.35,0.35,0.35h12.679  c0.193,0,0.35-0.156,0.35-0.35V36.858C31.198,36.665,31.041,36.509,30.848,36.509z M30.498,78.88H18.519V37.208h11.979V78.88z"/><path d="M18.169,33.872h5.672c0.193,0,0.35-0.156,0.35-0.35v-1.949c0-0.097-0.04-0.185-0.103-0.248l-2.554-2.554  c-0.063-0.063-0.151-0.103-0.248-0.103h-3.117c-0.193,0-0.35,0.156-0.35,0.35v4.504C17.819,33.716,17.976,33.872,18.169,33.872z   M18.519,29.368h2.622l2.35,2.35v1.455h-4.972V29.368z"/><path d="M30.848,28.669H27.73c-0.097,0-0.185,0.039-0.248,0.103l-2.554,2.554c-0.063,0.063-0.103,0.151-0.103,0.248v1.949  c0,0.193,0.157,0.35,0.35,0.35h5.672c0.193,0,0.35-0.156,0.35-0.35v-4.504C31.198,28.825,31.041,28.669,30.848,28.669z   M30.498,33.173h-4.972v-1.455l2.35-2.35h2.622V33.173z"/><path d="M22.258,28.599l2.002,2.002c0.068,0.068,0.158,0.103,0.248,0.103s0.179-0.034,0.248-0.103l2.002-2.002  c0.137-0.137,0.137-0.357,0-0.494l-2.002-2.002c-0.137-0.137-0.358-0.137-0.495,0l-2.002,2.002  C22.122,28.241,22.122,28.462,22.258,28.599z M24.508,26.844l1.507,1.508l-1.507,1.508L23,28.352L24.508,26.844z"/><path d="M30.848,22.83h-5.672c-0.193,0-0.35,0.156-0.35,0.35v1.949c0,0.097,0.04,0.185,0.103,0.248l2.554,2.553  c0.063,0.064,0.151,0.104,0.248,0.104h3.117c0.193,0,0.35-0.156,0.35-0.35V23.18C31.198,22.986,31.041,22.83,30.848,22.83z   M30.498,27.334h-2.622l-2.35-2.35v-1.455h4.972V27.334z"/><path d="M18.169,28.033h3.117c0.097,0,0.185-0.039,0.248-0.104l2.554-2.553c0.063-0.063,0.103-0.151,0.103-0.248V23.18  c0-0.193-0.157-0.35-0.35-0.35h-5.672c-0.193,0-0.35,0.156-0.35,0.35v4.504C17.819,27.877,17.976,28.033,18.169,28.033z   M18.519,23.529h4.972v1.455l-2.35,2.35h-2.622V23.529z"/><text x="0" y="115" fill="#000000" font-size="5px" font-weight="bold" font-family="'Helvetica Neue', Helvetica, Arial-Unicode, Arial, Sans-serif">Created by Lluisa Iborra</text><text x="0" y="120" fill="#000000" font-size="5px" font-weight="bold" font-family="'Helvetica Neue', Helvetica, Arial-Unicode, Arial, Sans-serif">from the Noun Project</text></svg>