<svg xmlns="http://www.w3.org/2000/svg" xmlns:xlink="http://www.w3.org/1999/xlink" version="1.1" x="0px" y="0px" viewBox="0 0 100 125" enable-background="new 0 0 100 100" xml:space="preserve"><path d="M94.604,57.949c-0.001-0.02-0.012-0.033-0.015-0.051c-0.004-0.023-0.001-0.046-0.008-0.068l-0.165-0.516  c-0.008-0.023-0.023-0.039-0.034-0.061c-0.009-0.02-0.012-0.041-0.023-0.06l-0.269-0.413c-0.009-0.014-0.021-0.02-0.031-0.032  s-0.014-0.026-0.024-0.038L54.64,14.976c-0.008-0.008-0.018-0.011-0.026-0.019c-0.008-0.007-0.012-0.018-0.021-0.025l-0.391-0.319  c-0.019-0.015-0.042-0.021-0.062-0.033c-0.021-0.012-0.036-0.03-0.059-0.04l-0.485-0.207c-0.021-0.009-0.044-0.007-0.065-0.014  c-0.021-0.006-0.04-0.019-0.063-0.022l-0.598-0.081c-0.015-0.002-0.027,0.003-0.042,0.002c-0.011-0.001-0.021-0.007-0.032-0.007  l-0.67,0.01c-0.015,0-0.027,0.007-0.041,0.009c-0.015,0.001-0.028-0.003-0.042,0l-0.732,0.134c-0.01,0.001-0.017,0.008-0.026,0.01  c-0.01,0.002-0.02,0-0.029,0.003l-0.814,0.247c-0.005,0.001-0.007,0.005-0.012,0.006c-0.004,0.001-0.007,0-0.011,0.001l-0.005,0.002  c-0.001,0-0.002,0-0.003,0.001L37.723,19.17c-0.001,0-0.002,0.001-0.003,0.002c-0.004,0.001-0.007,0.003-0.01,0.004  c-0.003,0.001-0.006,0-0.009,0.001l-0.856,0.351c-0.007,0.003-0.011,0.009-0.018,0.012c-0.007,0.003-0.014,0.002-0.021,0.005  l-0.886,0.453c-0.006,0.003-0.009,0.008-0.015,0.012c-0.006,0.003-0.012,0.003-0.018,0.006l-0.898,0.547  c-0.005,0.003-0.007,0.008-0.012,0.011c-0.004,0.002-0.01,0.003-0.014,0.006l-0.906,0.63c-0.004,0.003-0.006,0.008-0.011,0.011  c-0.004,0.003-0.01,0.003-0.014,0.007l-0.888,0.7c-0.004,0.003-0.005,0.007-0.009,0.01c-0.004,0.003-0.009,0.004-0.013,0.007  L32.26,22.71c-0.004,0.003-0.005,0.008-0.009,0.011c-0.003,0.003-0.008,0.004-0.012,0.008l-0.815,0.805  c-0.005,0.004-0.006,0.011-0.011,0.016c-0.004,0.004-0.009,0.005-0.013,0.01l-0.753,0.855c-0.002,0.002-0.003,0.005-0.005,0.008  s-0.005,0.003-0.007,0.006l-0.701,0.855c-0.004,0.005-0.005,0.012-0.009,0.017c-0.005,0.006-0.012,0.009-0.016,0.015l-0.608,0.877  c-0.003,0.005-0.004,0.011-0.007,0.016c-0.003,0.004-0.008,0.007-0.011,0.012l-0.516,0.856c-0.003,0.006-0.003,0.012-0.007,0.018  c-0.003,0.005-0.008,0.008-0.011,0.014l-0.423,0.836c-0.002,0.004-0.002,0.009-0.004,0.014c-0.002,0.003-0.005,0.006-0.007,0.01v0  c0,0,0,0-0.001,0l-1.597,3.617c-0.004,0.009-0.003,0.019-0.007,0.027c-0.003,0.009-0.011,0.016-0.014,0.025l-0.104,0.33  c-0.004,0.011-0.001,0.021-0.003,0.033c-0.003,0.011-0.011,0.02-0.013,0.031l-0.062,0.361c-0.003,0.016,0.003,0.03,0.001,0.045  c-0.001,0.014-0.008,0.026-0.008,0.04v0.331c0,0.026,0.011,0.048,0.015,0.073s0,0.05,0.008,0.075l0.083,0.267  c0.003,0.011,0.015,0.016,0.019,0.026c0.009,0.024,0.011,0.049,0.023,0.072l0.123,0.218c0.008,0.013,0.022,0.019,0.03,0.031  c0.015,0.021,0.022,0.045,0.04,0.064l0.223,0.238L5.971,41.424c-0.004,0.001-0.007,0.005-0.012,0.007  c-0.006,0.002-0.013,0.003-0.019,0.005c-0.03,0.013-0.054,0.036-0.081,0.055c-0.021,0.015-0.047,0.026-0.065,0.044  c-0.003,0.003-0.008,0.006-0.011,0.009c-0.018,0.018-0.028,0.043-0.043,0.064c-0.002,0.002-0.003,0.004-0.005,0.006  c-0.018,0.025-0.038,0.048-0.051,0.076c-0.003,0.005-0.006,0.01-0.008,0.016c-0.001,0.003-0.004,0.004-0.005,0.007  c-0.01,0.025-0.008,0.051-0.013,0.077c-0.007,0.03-0.017,0.059-0.018,0.09c0,0.005-0.003,0.009-0.003,0.014v0.014  c0,0.001,0,0.002,0,0.002V85.6c0,0.003,0.002,0.006,0.002,0.009c0,0.04,0.013,0.076,0.022,0.114  c0.007,0.025,0.008,0.053,0.019,0.076c0.013,0.029,0.035,0.053,0.053,0.08c0.019,0.025,0.032,0.055,0.055,0.077  C5.808,85.975,5.833,85.984,5.855,86c0.031,0.023,0.061,0.047,0.097,0.062c0.003,0.001,0.005,0.004,0.008,0.004l2.052,0.785  c0.059,0.021,0.119,0.032,0.179,0.032c0.056,0,0.113-0.009,0.169-0.029l33.856-12.117c0.005-0.001,0.008-0.005,0.012-0.007  c0.035-0.014,0.063-0.036,0.094-0.057c0.023-0.016,0.051-0.028,0.071-0.048c0.022-0.022,0.037-0.05,0.056-0.076  s0.04-0.05,0.053-0.079c0.012-0.026,0.015-0.056,0.021-0.084c0.007-0.025,0.018-0.051,0.02-0.078l0.843,0.322  c0.059,0.021,0.118,0.032,0.178,0.032c0.056,0,0.112-0.009,0.168-0.029l8.456-3.021c0.025-0.009,0.044-0.028,0.067-0.04  c0.012-0.007,0.026-0.004,0.038-0.012l6.416-4.186l7.551,7.998c0.009,0.008,0.021,0.012,0.029,0.02  c0.01,0.01,0.014,0.021,0.024,0.029l0.195,0.154c0.009,0.008,0.021,0.004,0.031,0.011c0.031,0.022,0.061,0.048,0.099,0.063  l0.269,0.104c0.027,0.01,0.057,0.01,0.085,0.016c0.021,0.004,0.039,0.016,0.062,0.017l0.31,0.021c0.012,0,0.022,0.001,0.033,0.001  c0.009,0,0.019-0.001,0.028-0.001l0.36-0.021c0.008-0.001,0.014-0.005,0.021-0.006c0.027-0.003,0.055-0.003,0.082-0.011l0.34-0.093  c0.006-0.001,0.01-0.007,0.016-0.008c0.008-0.003,0.015-0.001,0.021-0.004l20.048-7.178c0.009-0.003,0.015-0.011,0.022-0.014  c0.007-0.003,0.015-0.001,0.021-0.005l0.351-0.165c0.005-0.003,0.008-0.007,0.013-0.01c0.004-0.002,0.009-0.001,0.013-0.003  l0.475-0.258c0.01-0.006,0.016-0.015,0.024-0.021c0.006-0.003,0.014-0.002,0.02-0.006l0.453-0.31  c0.004-0.002,0.005-0.006,0.009-0.009c0.002-0.001,0.004-0.001,0.006-0.002l0.475-0.351c0.008-0.006,0.011-0.014,0.019-0.021  c0.008-0.006,0.017-0.009,0.024-0.015l0.434-0.402c0.002-0.001,0.002-0.004,0.004-0.005c0.002-0.002,0.004-0.002,0.006-0.004  l0.423-0.413c0.005-0.004,0.006-0.01,0.01-0.015c0.004-0.003,0.009-0.005,0.012-0.009l0.391-0.434  c0.007-0.007,0.009-0.017,0.015-0.024c0.005-0.006,0.013-0.009,0.018-0.015l0.331-0.453c0.002-0.003,0.002-0.007,0.005-0.01  c0.002-0.002,0.005-0.004,0.007-0.006l0.299-0.445c0.005-0.007,0.005-0.016,0.01-0.022c0.003-0.005,0.009-0.007,0.012-0.013  l0.195-0.35c0.005-0.008,0.005-0.018,0.009-0.026c0.003-0.007,0.01-0.009,0.013-0.015l1.599-3.631  c0.002-0.004,0.001-0.009,0.003-0.014c0.001-0.002,0.004-0.004,0.005-0.006l0.31-0.795c0.005-0.014,0.003-0.027,0.007-0.041  c0.002-0.008,0.01-0.01,0.012-0.018l0.186-0.731c0.003-0.011,0-0.021,0.002-0.031s0.009-0.021,0.01-0.032l0.083-0.69  c0.002-0.016-0.004-0.029-0.004-0.044c0.001-0.018,0.008-0.032,0.007-0.049L94.604,57.949z M51.521,15.342l0.66-0.121l0.591-0.009  l0.495,0.067l0.357,0.153l0.312,0.255l37.999,40.256l-0.425,0.013c-0.013,0.001-0.022,0.007-0.035,0.009  c-0.011,0-0.021-0.004-0.032-0.002l-0.732,0.124c-0.011,0.002-0.02,0.009-0.03,0.012s-0.021-0.001-0.032,0.003l-0.519,0.157  L51.504,15.347L51.521,15.342z M50.446,15.683l38.645,40.931l-11.668,4.181L38.779,19.854L50.446,15.683z M29.634,27.579  l0.499-0.828l0.591-0.852l0.682-0.831l0.729-0.83l0.799-0.788l0.847-0.748l0.861-0.679l0.88-0.612l0.87-0.53l0.851-0.435  l0.521-0.213L76.42,61.188l-0.182,0.074c-0.008,0.003-0.013,0.01-0.021,0.014c-0.007,0.003-0.015,0.003-0.022,0.007l-0.865,0.453  c-0.004,0.002-0.006,0.007-0.011,0.009c-0.004,0.003-0.008,0.002-0.012,0.005l-0.908,0.537c-0.005,0.002-0.008,0.008-0.013,0.011  s-0.01,0.003-0.015,0.007l-0.917,0.627c-0.006,0.004-0.008,0.01-0.014,0.014c-0.005,0.004-0.012,0.006-0.017,0.01l-0.888,0.711  c-0.003,0.003-0.004,0.007-0.007,0.01c-0.004,0.002-0.009,0.003-0.012,0.006l-0.865,0.763c-0.004,0.003-0.006,0.009-0.01,0.013  s-0.009,0.004-0.013,0.008l-0.815,0.814c-0.004,0.004-0.005,0.01-0.009,0.014c-0.002,0.002-0.006,0.004-0.009,0.006l-0.753,0.836  c-0.003,0.004-0.004,0.008-0.006,0.012c-0.004,0.004-0.009,0.005-0.012,0.009l-0.7,0.866c-0.004,0.005-0.005,0.012-0.009,0.017  s-0.009,0.007-0.013,0.013l-0.609,0.875c-0.004,0.006-0.004,0.012-0.007,0.018c-0.004,0.005-0.01,0.008-0.013,0.014l-0.516,0.867  c-0.003,0.005-0.003,0.012-0.006,0.017c-0.003,0.006-0.009,0.009-0.012,0.015l-0.093,0.186L29.379,28.083L29.634,27.579z   M42.41,48.658l-0.01-0.01c0,0,0,0,0-0.001L29.401,34.886c-0.001-0.001-0.002-0.002-0.003-0.003l-0.002-0.002  c0,0-0.001-0.001-0.001-0.001l-1.067-1.128c-0.001,0-0.001,0-0.001,0l-0.005-0.005c0,0-0.001,0-0.001,0l-0.697-0.747l-0.012-0.021  l30.323,32.126l-0.242-0.256c0,0-0.001,0-0.001-0.001l-4.723-5.001l-1.967-2.082c0,0-0.001,0-0.001-0.001l-3.528-3.742  c0-0.001-0.001-0.001-0.002-0.001L42.41,48.658z M46.335,54.271l-3.101,2.019l-0.688-0.261v-5.771L46.335,54.271z M42.198,56.967  l-5.026,3.283l-14.849-5.695l7.013-2.516l12.516,4.795c0.001,0.001,0.001,0.001,0.001,0.001l0.016,0.006  c0.001,0,0.001,0.001,0.001,0.001L42.198,56.967z M7.69,85.657l-1.052-0.402V42.624l1.052,0.407V85.657z M8.197,42.155l-0.626-0.242  l20.249-7.243l0.322,0.341L8.197,42.155z M8.69,85.674V43.041l20.203-7.237L41.547,49.2v6.447l-12.026-4.607  c-0.022-0.009-0.046-0.006-0.069-0.012c-0.034-0.008-0.067-0.017-0.104-0.018c-0.035,0-0.068,0.008-0.102,0.015  c-0.024,0.005-0.049,0.002-0.073,0.011l-8.456,3.032c-0.005,0.001-0.008,0.005-0.012,0.007c-0.007,0.003-0.014,0.004-0.021,0.008  c-0.008,0.003-0.014,0.01-0.021,0.014c-0.02,0.01-0.035,0.024-0.053,0.036c-0.023,0.017-0.05,0.028-0.069,0.047  c-0.005,0.004-0.009,0.007-0.013,0.011c-0.011,0.012-0.017,0.027-0.026,0.039c-0.007,0.01-0.013,0.02-0.02,0.029  c-0.018,0.025-0.038,0.048-0.051,0.076c-0.003,0.006-0.006,0.012-0.009,0.018c-0.001,0.003-0.003,0.005-0.004,0.008  c-0.009,0.022-0.007,0.047-0.012,0.07c-0.007,0.031-0.018,0.062-0.019,0.095c0,0.005-0.003,0.009-0.003,0.014v10.911  c0,0.003,0.002,0.005,0.002,0.008c0,0.041,0.013,0.08,0.023,0.119c0.007,0.023,0.007,0.05,0.017,0.072  c0.013,0.029,0.035,0.053,0.053,0.078c0.019,0.027,0.032,0.057,0.055,0.078c0.018,0.018,0.042,0.027,0.062,0.043  c0.033,0.023,0.063,0.049,0.102,0.064c0.003,0,0.004,0.003,0.007,0.004l20.821,8.006L8.69,85.674z M43.502,73.605l-1.274-0.486  l-0.001-0.001l-20.841-8.013v-9.84l15.667,6.01c0.059,0.022,0.119,0.033,0.179,0.033c0.095,0,0.189-0.026,0.273-0.082l0.007-0.004  l6.056-3.957l0,0l0.007-0.004c0,0,0,0,0.001-0.001l3.457-2.251l3.226,3.422l0.816,1.07c0.009,0.012,0.022,0.016,0.032,0.026  c0.013,0.016,0.021,0.034,0.036,0.048l1.121,0.979l4.292,4.545L43.502,73.605z M51.793,70.691l-4.398,1.572l9.859-6.426l0.755,0.799  L51.793,70.691z M66.418,72.634l-38.65-40.947l1.16-2.626l38.658,40.946L66.418,72.634z M93.57,59.189l-0.17,0.67l-0.291,0.748  l-1.591,3.613l-0.171,0.305l-0.287,0.428l-0.306,0.418l-0.358,0.397l-0.411,0.401l-0.408,0.377l-0.438,0.325l-0.435,0.296  l-0.438,0.238l-0.31,0.146l-20.011,7.164l-0.271,0.074L67.4,74.807l-0.207-0.014l-0.125-0.049l-0.067-0.053l-0.056-0.09  l-0.041-0.133v-0.208l0.05-0.29l0.086-0.272l1.591-3.582l0.4-0.8l0.496-0.834l0.588-0.845l0.686-0.849l0.722-0.801l0.806-0.805  l0.85-0.749l0.857-0.688l0.887-0.606l0.882-0.521l0.839-0.44l0.821-0.335l12.672-4.54l0.773-0.234l0.666-0.113l0.591-0.018  l0.489,0.076l0.363,0.154l0.277,0.225l0.187,0.289l0.127,0.396l0.034,0.503L93.57,59.189z"/><path d="M72.315,70.229c0.004-0.004,0.01-0.004,0.014-0.008l0.154-0.125c0.009-0.008,0.014-0.019,0.022-0.026  c0.008-0.008,0.02-0.011,0.027-0.02l0.125-0.133c0.01-0.011,0.013-0.023,0.021-0.034c0.007-0.008,0.018-0.012,0.023-0.021  l0.103-0.146c0.004-0.006,0.005-0.013,0.008-0.02c0.003-0.003,0.007-0.004,0.009-0.008l0.082-0.133  c0.011-0.018,0.012-0.037,0.02-0.055c0.005-0.011,0.017-0.015,0.021-0.025l0.047-0.119c0,0,0,0,0-0.001l0.005-0.013  c0.012-0.029,0.01-0.061,0.016-0.09c0.006-0.031,0.019-0.06,0.019-0.092v-0.114c0-0.01-0.005-0.019-0.006-0.028  c-0.001-0.032-0.011-0.063-0.02-0.096c-0.009-0.033-0.017-0.066-0.031-0.098c-0.005-0.008-0.004-0.017-0.009-0.025l-0.041-0.072  c-0.008-0.013-0.02-0.02-0.028-0.031c-0.012-0.018-0.02-0.036-0.034-0.053c-0.003-0.003-0.004-0.008-0.007-0.011l-0.453-0.484  c-0.013-0.014-0.03-0.019-0.044-0.031c-0.013-0.011-0.02-0.025-0.033-0.035L72.3,68.066l0.026,0.014  c0.008,0.005,0.016,0.003,0.022,0.007c0.049,0.024,0.101,0.046,0.158,0.054l0.083,0.011c0.021,0.003,0.042,0.004,0.062,0.004  c0.001,0,0.001,0,0.001,0c0.027,0,0.055-0.002,0.083-0.007l0.124-0.021c0.05-0.009,0.093-0.03,0.137-0.052  c0.011-0.006,0.022-0.003,0.032-0.009l0.123-0.071c0.012-0.007,0.019-0.02,0.03-0.027c0.006-0.004,0.015-0.002,0.021-0.006  l0.124-0.094c0.001-0.002,0.002-0.002,0.003-0.004h0.001l0.134-0.104c0.012-0.009,0.018-0.022,0.028-0.032  c0.01-0.009,0.022-0.013,0.032-0.022l0.114-0.123c0.004-0.004,0.005-0.01,0.008-0.014c0.004-0.004,0.009-0.005,0.012-0.009  l0.103-0.124c0.021-0.024,0.028-0.054,0.043-0.08c0.007-0.012,0.02-0.018,0.025-0.029l0.062-0.134  c0.002-0.005,0.001-0.01,0.003-0.015c0.002-0.002,0.005-0.004,0.006-0.006l0.038-0.096c0.001-0.001,0.002-0.003,0.002-0.004  l0.002-0.004c0.009-0.022,0.007-0.045,0.013-0.068c0.01-0.039,0.024-0.077,0.024-0.12v-0.103c0-0.029-0.012-0.055-0.017-0.084  c-0.005-0.025-0.002-0.053-0.011-0.078l-0.021-0.062c0-0.002-0.001-0.002-0.002-0.003c-0.006-0.019-0.021-0.033-0.028-0.05  c-0.016-0.031-0.031-0.061-0.053-0.089c-0.007-0.008-0.01-0.019-0.017-0.025c-0.002-0.003-0.003-0.007-0.005-0.009l-0.453-0.494  c-0.004-0.004-0.009-0.006-0.014-0.01c-0.022-0.023-0.053-0.04-0.081-0.059c-0.027-0.02-0.053-0.04-0.083-0.053  c-0.006-0.002-0.009-0.007-0.015-0.009l-0.063-0.024c-0.001,0-0.001,0-0.001,0l-0.019-0.007c-0.025-0.01-0.049-0.007-0.073-0.012  c-0.034-0.007-0.066-0.021-0.103-0.021h-0.083c-0.015,0-0.025,0.007-0.039,0.008c-0.015,0.002-0.028-0.004-0.043-0.001l-0.123,0.021  c-0.025,0.004-0.045,0.019-0.068,0.025c-0.024,0.009-0.051,0.01-0.074,0.021l-0.124,0.062c-0.009,0.004-0.014,0.012-0.021,0.018  c-0.01,0.005-0.021,0.006-0.029,0.012l-0.123,0.08c-0.009,0.006-0.014,0.016-0.022,0.022c-0.008,0.006-0.018,0.008-0.025,0.015  l-0.135,0.113c-0.006,0.006-0.008,0.012-0.013,0.018c-0.006,0.005-0.014,0.006-0.02,0.012l-0.113,0.115  c-0.007,0.007-0.01,0.017-0.017,0.024s-0.016,0.011-0.022,0.02l-0.104,0.133c-0.012,0.015-0.015,0.033-0.024,0.05  c-0.009,0.014-0.022,0.022-0.029,0.037l-0.062,0.125c-0.004,0.008-0.003,0.018-0.007,0.025c-0.004,0.009-0.011,0.015-0.015,0.023  l-0.041,0.113c-0.011,0.027-0.008,0.057-0.013,0.086c-0.006,0.028-0.018,0.055-0.018,0.085v0.094c0,0.022,0.01,0.039,0.013,0.06  c0.003,0.023-0.002,0.045,0.004,0.068l0.021,0.081c0.002,0.007,0.009,0.009,0.011,0.016c0.022,0.074,0.057,0.146,0.114,0.206  l0.464,0.475c0.017,0.018,0.039,0.025,0.058,0.039c0.006,0.006,0.011,0.011,0.018,0.016c0.004,0.002,0.007,0.008,0.012,0.01  c0.003,0.002,0.005,0.006,0.009,0.008c-0.01-0.007-0.021-0.008-0.03-0.014c-0.031-0.018-0.063-0.032-0.1-0.043  c-0.021-0.006-0.042-0.011-0.063-0.013c-0.027-0.005-0.052-0.017-0.081-0.017h-0.104c-0.02,0-0.035,0.009-0.055,0.011  c-0.019,0.003-0.037-0.003-0.057,0.002l-0.133,0.03c-0.02,0.004-0.034,0.018-0.053,0.023c-0.021,0.008-0.041,0.008-0.061,0.018  l-0.146,0.072c-0.009,0.005-0.014,0.013-0.021,0.018c-0.009,0.004-0.018,0.005-0.025,0.01l-0.144,0.093  c-0.013,0.008-0.019,0.021-0.03,0.029s-0.026,0.013-0.037,0.022l-0.144,0.132l-0.134,0.116c-0.019,0.016-0.028,0.038-0.044,0.057  c-0.014,0.016-0.032,0.025-0.044,0.043L70.63,68.77c-0.002,0.003-0.002,0.007-0.004,0.01s-0.005,0.004-0.007,0.008l-0.082,0.133  c-0.013,0.021-0.015,0.045-0.024,0.067c-0.011,0.024-0.027,0.046-0.034,0.072l-0.031,0.124c-0.004,0.014,0,0.027-0.002,0.041  s-0.011,0.024-0.012,0.039l-0.01,0.113c0,0.005,0.002,0.009,0.002,0.014c-0.003,0.033,0.006,0.068,0.012,0.104  c0.004,0.031,0.005,0.062,0.016,0.092c0.001,0.004,0,0.01,0.002,0.014l0.031,0.081c0,0.001,0.001,0.001,0.001,0.001  c0.023,0.062,0.06,0.119,0.108,0.169l0.464,0.475c0.006,0.006,0.014,0.007,0.019,0.013c0.007,0.006,0.01,0.015,0.017,0.021  l0.062,0.052c0.028,0.023,0.059,0.037,0.089,0.053c0.017,0.008,0.03,0.02,0.048,0.027c0.009,0.003,0.019,0.002,0.028,0.006  c0.05,0.017,0.102,0.031,0.157,0.031h0.103c0,0,0,0,0.001,0c0.024,0,0.05-0.002,0.074-0.006l0.135-0.021  c0.026-0.004,0.048-0.019,0.072-0.026c0.021-0.006,0.042-0.004,0.062-0.014l0.154-0.071c0.021-0.01,0.034-0.026,0.053-0.038  c0.009-0.006,0.02-0.004,0.028-0.01l0.145-0.104C72.31,70.236,72.312,70.231,72.315,70.229z"/><path d="M88.572,60.928c-0.001-0.002-0.002-0.002-0.003-0.004c-0.017-0.045-0.044-0.082-0.072-0.121  c-0.011-0.014-0.017-0.033-0.029-0.046c-0.015-0.016-0.035-0.024-0.052-0.038c-0.033-0.028-0.066-0.057-0.106-0.076  c-0.002,0-0.004-0.002-0.006-0.004c-0.021-0.009-0.044-0.008-0.066-0.014c-0.039-0.012-0.076-0.024-0.118-0.025  c-0.039-0.002-0.076,0.008-0.114,0.016c-0.023,0.005-0.048,0.002-0.071,0.011l-1.587,0.567c-0.001,0-0.001,0-0.002,0l-11.117,3.98  c-0.003,0.001-0.004,0.003-0.007,0.004c-0.033,0.013-0.061,0.035-0.091,0.055c-0.024,0.017-0.054,0.027-0.074,0.047  c-0.014,0.012-0.021,0.03-0.032,0.044c-0.03,0.036-0.061,0.071-0.08,0.113c-0.002,0.003-0.004,0.004-0.005,0.007l-2.031,4.609l0,0  L72.227,71.6c-0.012,0.026-0.011,0.054-0.018,0.08c-0.009,0.034-0.021,0.066-0.022,0.102c-0.002,0.044,0.009,0.086,0.019,0.127  c0.005,0.021,0.002,0.041,0.009,0.061c0.001,0.002,0.002,0.003,0.003,0.004c0.031,0.085,0.09,0.154,0.162,0.213  c0.018,0.014,0.033,0.024,0.053,0.036c0.018,0.011,0.031,0.028,0.052,0.036c0.065,0.029,0.134,0.043,0.201,0.043  c0.056,0,0.113-0.01,0.169-0.029l12.695-4.547c0.002-0.001,0.004-0.003,0.006-0.004c0.022-0.008,0.042-0.024,0.062-0.036  c0.02-0.011,0.035-0.021,0.053-0.032c0.017-0.013,0.037-0.021,0.052-0.035c0.001,0,0.003-0.001,0.004-0.002  c0.017-0.016,0.023-0.036,0.037-0.053c0.026-0.033,0.054-0.064,0.071-0.104c0.001-0.001,0.002-0.002,0.003-0.003l0.001-0.003  c0.001,0,0.001-0.002,0.001-0.002l2.715-6.141l0,0l0.005-0.012c0.01-0.021,0.009-0.045,0.015-0.066  c0.012-0.039,0.024-0.076,0.026-0.117c0.002-0.043-0.009-0.084-0.019-0.126C88.576,60.969,88.579,60.948,88.572,60.928z   M75.768,66.043l9.816-3.515l-1.492,3.368l-9.8,3.496L75.768,66.043z M73.611,70.938l0.125-0.285l10.588-3.777l0.161,0.168  L73.611,70.938z M85.225,66.369l-0.17-0.178l1.829-4.129l0.29-0.104L85.225,66.369z"/><text x="0" y="115" fill="#000000" font-size="5px" font-weight="bold" font-family="'Helvetica Neue', Helvetica, Arial-Unicode, Arial, Sans-serif">Created by Lluisa Iborra</text><text x="0" y="120" fill="#000000" font-size="5px" font-weight="bold" font-family="'Helvetica Neue', Helvetica, Arial-Unicode, Arial, Sans-serif">from the Noun Project</text></svg>